Land_normalized_pl08_filtered_grf
version=1
nRows=25
nColumns=37
inDegrees=yes
endheader
time		1_ground_force_vx		1_ground_force_vy		1_ground_force_vz		1_ground_force_px		1_ground_force_py		1_ground_force_pz		1_ground_torque_x		1_ground_torque_y		1_ground_torque_z		2_ground_force_vx		2_ground_force_vy		2_ground_force_vz		2_ground_force_px		2_ground_force_py		2_ground_force_pz		2_ground_torque_x		2_ground_torque_y		2_ground_torque_z		3_ground_force_vx		3_ground_force_vy		3_ground_force_vz		3_ground_force_px		3_ground_force_py		3_ground_force_pz		3_ground_torque_x		3_ground_torque_y		3_ground_torque_z		4_ground_force_vx		4_ground_force_vy		4_ground_force_vz		4_ground_force_px		4_ground_force_py		4_ground_force_pz		4_ground_torque_x		4_ground_torque_y		4_ground_torque_z		
0.654500		5.152642		-23.109864		-24.930129		0.149226		0.000000		0.179307		-0.038262		0.171607		0.185124		-3.894658		-65.081247		-28.543702		-0.144236		0.000000		0.238987		0.102048		1.705253		0.747900		22.748975		1.468267		0.593478		0.375819		1.311083		1.913946		-0.086198		-0.005563		-0.002249		-19.366490		-0.487649		2.460197		-0.265126		1.310045		1.924982		0.022770		0.000573		-0.002893		
0.657707		9.273893		-56.089545		-51.284967		0.145972		0.000000		0.186229		-0.034385		0.207821		0.190085		-0.409416		-89.006623		-44.489139		-0.145556		0.000000		0.243065		0.010518		2.283938		1.141591		22.747563		1.624265		0.626637		0.375772		1.311030		1.913941		-0.085274		-0.006089		-0.002349		-19.349695		-0.508486		2.473550		-0.265161		1.310029		1.924991		0.020029		0.000526		-0.002561		
0.660914		10.646365		-76.494790		-64.636733		0.145011		0.000000		0.189363		-0.018637		0.133821		0.113106		6.380149		-70.737793		-43.346032		-0.149961		0.000000		0.252762		-0.161500		1.790775		1.097313		22.701788		1.792236		0.643178		0.375723		1.310977		1.913926		-0.084661		-0.006684		-0.002398		-19.268916		-0.564246		2.437888		-0.265203		1.310017		1.925000		0.016466		0.000482		-0.002084		
0.664121		6.235204		-59.609832		-46.162160		0.145224		0.000000		0.193183		0.005336		-0.051743		-0.039943		15.603049		17.512438		-10.854014		-0.060415		0.000000		0.134884		-0.078279		-0.117810		0.039675		22.621615		1.938004		0.635703		0.375676		1.310932		1.913903		-0.084730		-0.007259		-0.002381		-19.161945		-0.642847		2.357903		-0.265249		1.310010		1.925008		0.012810		0.000430		-0.001576		
0.667328		-6.107456		19.230993		19.748484		0.139275		0.000000		0.173902		0.103751		-0.280662		-0.307450		24.970629		190.494428		61.883296		-0.134485		0.000000		0.222574		-0.531723		-4.057401		-1.318233		22.516071		2.038376		0.597913		0.375635		1.310897		1.913876		-0.085614		-0.007751		-0.002273		-19.067973		-0.723417		2.246373		-0.265298		1.310009		1.925016		0.009990		0.000379		-0.001177		
0.670535		-26.175458		174.306059		136.443663		0.140521		0.000000		0.189965		0.050841		-0.338366		-0.264931		31.479575		438.988041		172.113503		-0.136546		0.000000		0.227435		-0.669749		-9.339505		-3.661709		22.392203		2.080818		0.533468		0.375603		1.310879		1.913850		-0.087271		-0.008110		-0.002079		-19.013609		-0.779806		2.117632		-0.265351		1.310016		1.925019		0.008880		0.000364		-0.000989		
0.673742		-50.511378		400.980107		288.261061		0.139954		0.000000		0.192808		-0.017945		0.143197		0.102642		32.817440		726.934222		302.504313		-0.136318		0.000000		0.227858		-0.663753		-14.699969		-6.117114		22.256367		2.059683		0.461250		0.375577		1.310874		1.913828		-0.089601		-0.008292		-0.001857		-19.007205		-0.786236		1.981168		-0.265405		1.310029		1.925021		0.009935		0.000411		-0.001035		
0.676949		-72.799527		671.484634		439.819431		0.138895		0.000000		0.195260		-0.179835		1.659248		1.086583		29.180322		1000.306351		424.163288		-0.135034		0.000000		0.226315		-0.539496		-18.492059		-7.841240		22.119284		1.977800		0.411226		0.375556		1.310879		1.913809		-0.092369		-0.008259		-0.001717		-19.039894		-0.729200		1.839627		-0.265458		1.310043		1.925020		0.012808		0.000491		-0.001237		
0.680157		-86.311606		944.623475		547.365008		0.137574		0.000000		0.197911		-0.439116		4.808672		2.785148		23.973732		1208.404214		507.418488		-0.132905		0.000000		0.223241		-0.381961		-19.247010		-8.082173		21.998569		1.848833		0.411817		0.375538		1.310886		1.913794		-0.095081		-0.007991		-0.001780		-19.093746		-0.614233		1.693768		-0.265507		1.310055		1.925016		0.016467		0.000530		-0.001461		
0.683364		-87.729102		1180.979039		578.862149		0.136231		0.000000		0.200866		-0.745846		10.045181		4.921648		22.859763		1325.715982		535.869478		-0.130154		0.000000		0.218987		-0.282486		-16.383739		-6.623038		21.913240		1.700450		0.473145		0.375523		1.310893		1.913778		-0.097068		-0.007532		-0.002096		-19.147564		-0.466170		1.552331		-0.265548		1.310062		1.925010		0.019582		0.000477		-0.001587		
0.686571		-79.564443		1357.129426		531.410881		0.135213		0.000000		0.203971		-1.010132		17.234087		6.746550		30.941746		1358.903633		514.172190		-0.127306		0.000000		0.214285		-0.237594		-10.444364		-3.952489		21.873236		1.569565		0.580068		0.375507		1.310897		1.913760		-0.097776		-0.007017		-0.002593		-19.181808		-0.318107		1.436069		-0.265579		1.310061		1.925000		0.021001		0.000348		-0.001572		
0.689778		-68.768242		1468.985596		435.109596		0.134754		0.000000		0.206888		-1.175084		25.108702		7.433897		49.843459		1338.942519		465.550556		-0.125317		0.000000		0.210439		-0.110867		-3.000283		-1.044541		21.873905		1.496107		0.696635		0.375491		1.310903		1.913739		-0.097002		-0.006635		-0.003089		-19.182386		-0.200485		1.372151		-0.265597		1.310052		1.924984		0.020121		0.000210		-0.001439		
0.692985		-61.588005		1527.004071		338.420568		0.134651		0.000000		0.209256		-1.270589		31.503115		6.981650		76.088905		1303.370519		419.227531		-0.125301		0.000000		0.208893		0.216207		3.701913		1.190627		21.901666		1.508995		0.781780		0.375474		1.310919		1.913718		-0.094920		-0.006540		-0.003388		-19.146590		-0.134196		1.378480		-0.265601		1.310037		1.924963		0.017164		0.000120		-0.001236		
0.696192		-59.193105		1545.572161		282.990997		0.134285		0.000000		0.210702		-1.330595		34.742887		6.361206		102.126016		1278.348654		395.505034		-0.127677		0.000000		0.210196		0.585451		7.326244		2.266616		21.946345		1.611037		0.807956		0.375456		1.310950		1.913701		-0.091952		-0.006750		-0.003385		-19.087636		-0.130710		1.451978		-0.265590		1.310021		1.924936		0.013048		0.000089		-0.000993		
0.699399		-57.970962		1537.285906		283.477620		0.133179		0.000000		0.210942		-1.319243		34.983941		6.451065		119.392827		1270.568192		397.241664		-0.131272		0.000000		0.213280		0.615067		6.546544		2.046671		22.004809		1.768062		0.773240		0.375438		1.310995		1.913688		-0.088731		-0.007129		-0.003118		-19.033803		-0.188550		1.564007		-0.265569		1.310006		1.924906		0.009027		0.000090		-0.000741		
0.702606		-53.900002		1509.022831		326.276562		0.131301		0.000000		0.209871		-1.208085		33.822249		7.312886		122.263713		1271.118893		413.136235		-0.134029		0.000000		0.216482		0.175606		1.824580		0.592676		22.076994		1.921875		0.698298		0.375422		1.311047		1.913679		-0.085993		-0.007486		-0.002720		-19.014609		-0.292364		1.673176		-0.265539		1.309997		1.924872		0.006181		0.000095		-0.000544		
0.705813		-45.747011		1463.520239		381.909641		0.128803		0.000000		0.207634		-1.028504		32.904182		8.586608		110.810878		1265.708964		427.126250		-0.134627		0.000000		0.218733		-0.421798		-4.823468		-1.628129		22.159728		2.015133		0.617038		0.375412		1.311093		1.913667		-0.084476		-0.007682		-0.002352		-19.040698		-0.412264		1.742337		-0.265501		1.309993		1.924834		0.005086		0.000111		-0.000465		
0.709020		-34.624075		1401.943240		423.334412		0.125855		0.000000		0.204601		-0.808432		32.734265		9.884580		90.573426		1244.308674		428.363007		-0.133134		0.000000		0.219732		-0.804307		-11.050791		-3.804336		22.242614		2.018620		0.558706		0.375412		1.311121		1.913648		-0.084774		-0.007694		-0.002129		-19.092852		-0.512944		1.753344		-0.265462		1.309992		1.924797		0.005726		0.000153		-0.000526		
0.712227		-21.888812		1326.107812		436.664396		0.122731		0.000000		0.201258		-0.542390		32.866874		10.822736		69.380161		1204.863041		415.178862		-0.130429		0.000000		0.219485		-0.869384		-15.102428		-5.204043		22.309341		1.938938		0.535135		0.375422		1.311126		1.913619		-0.087083		-0.007569		-0.002089		-19.131443		-0.569754		1.711289		-0.265425		1.309994		1.924758		0.007642		0.000228		-0.000684		
0.715434		-8.725613		1239.903509		422.718250		0.119752		0.000000		0.197962		-0.230404		32.748204		11.164820		53.324518		1152.852172		393.460724		-0.127525		0.000000		0.218127		-0.751921		-16.256549		-5.548244		22.346725		1.809965		0.536165		0.375442		1.311107		1.913579		-0.090815		-0.007355		-0.002179		-19.115997		-0.583149		1.642379		-0.265395		1.309997		1.924721		0.010095		0.000308		-0.000867		
0.718641		3.036279		1148.527652		390.546398		0.117122		0.000000		0.194822		0.085103		32.162688		10.936584		44.425801		1097.164857		371.075676		-0.125134		0.000000		0.215966		-0.600965		-14.841170		-5.019495		22.352854		1.670308		0.532381		0.375469		1.311075		1.913534		-0.094661		-0.007073		-0.002255		-19.021930		-0.574595		1.579261		-0.265370		1.310002		1.924687		0.012360		0.000373		-0.001026		
0.721848		11.073061		1057.681476		352.009685		0.114914		0.000000		0.191779		0.324791		31.019843		10.323746		40.988651		1046.159656		353.388902		-0.123510		0.000000		0.213530		-0.474751		-12.117142		-4.093114		22.336870		1.548357		0.489828		0.375496		1.311042		1.913494		-0.097108		-0.006731		-0.002129		-18.854240		-0.570764		1.545913		-0.265352		1.310010		1.924655		0.013861		0.000419		-0.001136		
0.725056		14.172797		972.296276		317.604467		0.113098		0.000000		0.188814		0.425682		29.202988		9.539271		39.858746		1004.651061		341.414612		-0.122480		0.000000		0.211358		-0.382134		-9.631826		-3.273212		22.308162		1.457704		0.389139		0.375518		1.311017		1.913462		-0.097312		-0.006359		-0.001698		-18.649347		-0.585641		1.545576		-0.265337		1.310021		1.924625		0.014179		0.000445		-0.001175		
0.728263		13.142557		895.899874		294.488213		0.111588		0.000000		0.186115		0.391938		26.717176		8.782083		38.509075		973.456854		333.084489		-0.121681		0.000000		0.209785		-0.333444		-8.428988		-2.884116		22.268793		1.402228		0.235769		0.375535		1.311006		1.913446		-0.095546		-0.006016		-0.001012		-18.464699		-0.615235		1.558950		-0.265319		1.310032		1.924594		0.013029		0.000434		-0.001100		
0.731470		9.885023		830.136278		284.679346		0.110311		0.000000		0.183944		0.284255		23.871013		8.186077		36.175882		950.484705		325.624329		-0.120893		0.000000		0.208882		-0.326364		-8.574952		-2.937672		22.215897		1.383358		0.059810		0.375545		1.311008		1.913446		-0.092926		-0.005786		-0.000250		-18.354769		-0.647429		1.555948		-0.265297		1.310039		1.924562		0.010456		0.000369		-0.000887		
